<?xml version="1.0" encoding="UTF-8" standalone="no"?>
<svg width="426px" height="170px" viewBox="0 0 426 170" version="1.1" xmlns="http://www.w3.org/2000/svg" xmlns:xlink="http://www.w3.org/1999/xlink">
    <!-- Generator: Sketch 3.8.2 (29753) - http://www.bohemiancoding.com/sketch -->
    <title>Conil hospeda - Logo horizontal</title>
    <desc>Created with Sketch.</desc>
    <defs>
        <polygon id="path-1" points="2.71050543e-20 0.6641 2.71050543e-20 119.5461 61.8548 119.5461 61.8548 0.6641 0 0.6641"></polygon>
        <polygon id="path-3" points="30.9273 92 0 92 0 0.69 61.8546 0.69 61.8546 92"></polygon>
        <polygon id="path-5" points="0 149.336 405.264 149.336 405.264 1 0 1"></polygon>
    </defs>
    <g id="Page-1" stroke="none" stroke-width="1" fill="none" fill-rule="evenodd">
        <g id="Conil-hospeda---Logo-horizontal">
            <g id="Page-1" transform="translate(10.000000, 10.000000)">
                <g id="Group-3" transform="translate(0.000000, 0.336000)">
                    <mask id="mask-2" fill="white">
                        <use xlink:href="#path-1"></use>
                    </mask>
                    <g id="Clip-2"></g>
                    <path d="M30.9268,103.7661 C22.5608,103.7661 15.7798,96.9831 15.7798,88.6201 C15.7798,80.2551 22.5608,73.4721 30.9268,73.4721 C39.2918,73.4721 46.0738,80.2551 46.0738,88.6201 C46.0738,96.9831 39.2918,103.7661 30.9268,103.7661 M61.8268,87.5051 C61.7108,84.2561 61.0978,81.1361 60.0558,78.2161 C55.9268,64.6441 45.5588,48.4861 38.3768,38.2931 C45.8988,29.8511 51.2238,10.7031 51.2238,0.6641 L30.9268,17.5011 L10.6308,0.6641 C10.6308,10.7031 15.9548,29.8511 23.4778,38.2931 C16.2958,48.4851 5.9288,64.6411 1.7988,78.2141 C0.7558,81.1331 0.1438,84.2561 0.0288,87.5051 C0.0098,87.8811 -0.0002,88.2521 -0.0002,88.6201 C-0.0012,105.6991 13.8458,119.5461 30.9268,119.5461 C48.0078,119.5461 61.8548,105.6991 61.8548,88.6201 C61.8548,88.2531 61.8438,87.8811 61.8268,87.5051" id="Fill-1" fill="#FFFFFF" mask="url(#mask-2)"></path>
                </g>
                <g id="Group-6" transform="translate(0.000000, 57.336000)">
                    <mask id="mask-4" fill="white">
                        <use xlink:href="#path-3"></use>
                    </mask>
                    <g id="Clip-5"></g>
                    <path d="M30.9276,44.887 C23.5996,44.887 17.6576,38.945 17.6576,31.617 C17.6576,24.289 23.5996,18.348 30.9276,18.348 C38.2566,18.348 44.1976,24.289 44.1976,31.617 C44.1976,38.945 38.2566,44.887 30.9276,44.887 M30.9276,0.69 C13.8476,0.69 -0.0004,14.537 -0.0004,31.617 C-0.0004,31.983 0.0106,32.356 0.0276,32.732 C0.1436,35.981 0.7566,39.101 1.7976,42.02 C8.3956,63.708 30.9276,92 30.9276,92 C30.9276,92 53.4566,63.71 60.0556,42.022 C61.0986,39.103 61.7106,35.981 61.8256,32.732 C61.8446,32.356 61.8546,31.984 61.8546,31.617 C61.8556,14.537 48.0076,0.69 30.9276,0.69" id="Fill-4" fill="#FFFFFF" mask="url(#mask-4)"></path>
                </g>
                <path d="M132.6699,33.9429 L129.4959,37.8989 C127.1489,35.3689 123.7909,33.8049 120.5239,33.8049 C114.0839,33.8049 109.0239,38.7739 109.0239,45.1219 C109.0239,51.4709 114.0839,56.4849 120.5239,56.4849 C123.7449,56.4849 127.0579,55.0129 129.4959,52.6669 L132.7159,56.2549 C129.4489,59.4759 124.8029,61.5459 120.2489,61.5459 C110.8169,61.5459 103.5029,54.4149 103.5029,45.1679 C103.5029,36.0129 110.9089,28.9739 120.4329,28.9739 C124.9869,28.9739 129.5419,30.8599 132.6699,33.9429" id="Fill-7" fill="#FFFFFF"></path>
                <path d="M153.2754,45.2142 C153.2754,51.6092 158.5654,56.6692 164.8684,56.6692 C171.1714,56.6692 176.3244,51.6092 176.3244,45.2142 C176.3244,38.8192 171.1714,33.8512 164.8684,33.8512 C158.5194,33.8512 153.2754,38.8192 153.2754,45.2142 M181.8904,45.2142 C181.8904,54.4152 174.4374,61.5462 164.8224,61.5462 C155.2074,61.5462 147.7544,54.4152 147.7544,45.2142 C147.7544,35.9672 155.2074,28.9742 164.8224,28.9742 C174.4374,28.9742 181.8904,36.0132 181.8904,45.2142" id="Fill-9" fill="#FFFFFF"></path>
                <polygon id="Fill-11" fill="#FFFFFF" points="223.1514 61.316 205.9914 38.221 205.9914 61.316 200.5624 61.316 200.5624 29.112 205.8994 29.112 223.1514 52.253 223.1514 29.112 228.4874 29.112 228.4874 61.316"></polygon>
                <mask id="mask-6" fill="white">
                    <use xlink:href="#path-5"></use>
                </mask>
                <g id="Clip-14"></g>
                <polygon id="Fill-13" fill="#FFFFFF" mask="url(#mask-6)" points="249.874 61.316 255.303 61.316 255.303 29.112 249.874 29.112"></polygon>
                <polygon id="Fill-15" fill="#FFFFFF" mask="url(#mask-6)" points="296.0137 56.3934 296.0137 61.3164 276.6457 61.3164 276.6457 29.1124 282.0747 29.1124 282.0747 56.3934"></polygon>
                <polygon id="Fill-16" fill="#FFFFFF" mask="url(#mask-6)" points="127.1953 121.316 127.1953 106.134 105.4353 106.134 105.4353 121.316 103.5033 121.316 103.5033 89.158 105.4353 89.158 105.4353 104.248 127.1953 104.248 127.1953 89.158 129.1283 89.158 129.1283 121.316"></polygon>
                <path d="M151.6191,105.2142 C151.6191,113.0812 158.2431,119.4752 166.2951,119.4752 C174.3461,119.4752 180.9711,113.0812 180.9711,105.2142 C180.9711,97.3472 174.3461,90.9982 166.2951,90.9982 C158.2431,90.9982 151.6191,97.3472 151.6191,105.2142 M182.9481,105.2142 C182.9481,114.1392 175.4951,121.3622 166.2951,121.3622 C157.0941,121.3622 149.6401,114.1392 149.6401,105.2142 C149.6401,96.2892 157.0941,89.1122 166.2951,89.1122 C175.4951,89.1122 182.9481,96.2892 182.9481,105.2142" id="Fill-17" fill="#FFFFFF" mask="url(#mask-6)"></path>
                <path d="M221.2187,91.6885 L220.3447,93.4365 C217.9527,91.8725 214.6867,91.0905 211.9257,91.0905 C206.8197,91.0905 203.5067,93.2065 203.5067,96.5655 C203.5067,106.3645 222.4147,101.3035 222.3227,113.1735 C222.3227,118.1415 217.8607,121.3615 211.1437,121.3615 C206.8647,121.3615 202.4947,119.4755 199.6887,116.7155 L200.7007,115.0135 C203.3227,117.7275 207.4177,119.3835 211.1907,119.3835 C216.7107,119.3835 220.2527,116.9915 220.2527,113.2195 C220.3447,103.1435 201.4367,108.2965 201.4367,96.7035 C201.4367,92.0565 205.6687,89.0665 212.0177,89.0665 C215.2837,89.0665 218.8267,90.1245 221.2187,91.6885" id="Fill-18" fill="#FFFFFF" mask="url(#mask-6)"></path>
                <path d="M245.8271,108.7105 L255.1661,108.7105 C261.8831,108.7105 265.7471,105.5365 265.7471,99.7855 C265.7471,94.1265 261.8831,91.0445 255.1661,91.0445 L245.8271,91.0445 L245.8271,108.7105 Z M255.2121,89.1585 C263.1251,89.1585 267.5871,93.0225 267.5871,99.7395 C267.5871,106.6405 263.1251,110.5965 255.2121,110.5965 L245.8271,110.5965 L245.8271,121.3155 L243.8941,121.3155 L243.8941,89.1585 L255.2121,89.1585 Z" id="Fill-19" fill="#FFFFFF" mask="url(#mask-6)"></path>
                <polygon id="Fill-20" fill="#FFFFFF" mask="url(#mask-6)" points="289.25 91.0445 289.25 103.8795 305.996 103.8795 305.996 105.8125 289.25 105.8125 289.25 119.4295 308.664 119.4295 308.664 121.3155 287.317 121.3155 287.317 89.1585 308.065 89.1585 308.065 91.0445"></polygon>
                <path d="M331.8916,119.4297 L342.7486,119.4297 C350.7996,119.4297 357.2866,113.1267 357.2866,105.2597 C357.2866,97.3467 350.7996,91.0447 342.7026,91.0447 L331.8916,91.0447 L331.8916,119.4297 Z M342.7486,89.1587 C351.9036,89.1587 359.2646,96.2427 359.2646,105.2597 C359.2646,114.1847 351.9036,121.3157 342.7026,121.3157 L329.9586,121.3157 L329.9586,89.1587 L342.7486,89.1587 Z" id="Fill-21" fill="#FFFFFF" mask="url(#mask-6)"></path>
                <path d="M389.4844,91.3665 L380.9734,110.2285 L398.0874,110.2285 L389.4844,91.3665 Z M380.1454,112.1605 L376.0054,121.3155 L373.8884,121.3155 L388.4724,89.1585 L390.5424,89.1585 L405.2634,121.3155 L403.1474,121.3155 L398.9614,112.1605 L380.1454,112.1605 Z" id="Fill-22" fill="#FFFFFF" mask="url(#mask-6)"></path>
            </g>
        </g>
    </g>
</svg>